{
	"asset":{
		"generator":"Khronos glTF Blender I/O v4.0.44",
		"version":"2.0"
	},
	"scene":0,
	"scenes":[
		{
			"name":"Scene",
			"nodes":[
				0,
				1,
				2,
				3,
				4,
				5,
				6,
				7,
				8,
				9,
				10,
				11
			]
		}
	],
	"nodes":[
		{
			"mesh":0,
			"name":"Cabeza Duende Sculp",
			"rotation":[
				-0.21453578770160675,
				0,
				0,
				0.9767161011695862
			],
			"scale":[
				0.3927871584892273,
				0.6327593326568604,
				0.43689098954200745
			],
			"translation":[
				-0.6056986451148987,
				0.7455341815948486,
				0.5805557370185852
			]
		},
		{
			"name":"Empty",
			"rotation":[
				0.70710688829422,
				0,
				0,
				0.7071066498756409
			],
			"translation":[
				0,
				0.010989665985107422,
				0
			]
		},
		{
			"name":"Empty.001",
			"rotation":[
				0.5000000596046448,
				0.5,
				-0.5,
				0.5
			],
			"translation":[
				0.7259160876274109,
				0.010459288954734802,
				1.3975260257720947
			]
		},
		{
			"mesh":1,
			"name":"Sphere",
			"scale":[
				-0.05396008491516113,
				-0.05396008491516113,
				-0.05396008491516113
			],
			"translation":[
				-0.7580108642578125,
				0.9315252900123596,
				0.7351934909820557
			]
		},
		{
			"mesh":2,
			"name":"Sphere.001",
			"scale":[
				-0.03719937056303024,
				-0.052469056099653244,
				-0.021643051877617836
			],
			"translation":[
				-0.5696111917495728,
				0.47038033604621887,
				0.9628915190696716
			]
		},
		{
			"mesh":3,
			"name":"Sphere.002",
			"rotation":[
				0,
				-0.061578668653964996,
				0,
				0.9981022477149963
			],
			"scale":[
				-0.03719937056303024,
				-0.052469056099653244,
				-0.021643051877617836
			],
			"translation":[
				-0.49862492084503174,
				0.4787874221801758,
				0.9584349393844604
			]
		},
		{
			"mesh":4,
			"name":"Sphere.003",
			"rotation":[
				0,
				0.15765072405338287,
				0,
				0.987494945526123
			],
			"scale":[
				-0.03719937056303024,
				-0.052469056099653244,
				-0.021643051877617836
			],
			"translation":[
				-0.43772241473197937,
				0.5104877948760986,
				0.942019522190094
			]
		},
		{
			"mesh":5,
			"name":"Sphere.004",
			"rotation":[
				0,
				0.23535627126693726,
				0,
				0.9719091653823853
			],
			"scale":[
				-0.03719937056303024,
				-0.052469056099653244,
				-0.021643051877617836
			],
			"translation":[
				-0.39497676491737366,
				0.5376373529434204,
				0.9138143658638
			]
		},
		{
			"mesh":6,
			"name":"Sphere.005",
			"scale":[
				-0.03719937056303024,
				-0.052469056099653244,
				-0.021643051877617836
			],
			"translation":[
				-0.5804948806762695,
				0.3879902958869934,
				0.953875720500946
			]
		},
		{
			"mesh":7,
			"name":"Sphere.006",
			"scale":[
				-0.03719937056303024,
				-0.052469056099653244,
				-0.021643051877617836
			],
			"translation":[
				-0.5095239877700806,
				0.39471593499183655,
				0.9492192268371582
			]
		},
		{
			"mesh":8,
			"name":"Sphere.007",
			"scale":[
				-0.03719937056303024,
				-0.052469056099653244,
				-0.021643051877617836
			],
			"translation":[
				-0.44687163829803467,
				0.4148930311203003,
				0.9468114972114563
			]
		},
		{
			"mesh":9,
			"name":"Sphere.008",
			"rotation":[
				0,
				-0.9867947101593018,
				0,
				0.16197581589221954
			],
			"scale":[
				-0.037199366837739944,
				-0.052469056099653244,
				-0.021643051877617836
			],
			"translation":[
				-0.40272924304008484,
				0.44179585576057434,
				0.9304825067520142
			]
		}
	],
	"materials":[
		{
			"doubleSided":true,
			"name":"Material",
			"pbrMetallicRoughness":{
				"baseColorFactor":[
					0.800000011920929,
					0.800000011920929,
					0.800000011920929,
					1
				],
				"metallicFactor":0,
				"roughnessFactor":0.4000000059604645
			}
		}
	],
	"meshes":[
		{
			"name":"Cube",
			"primitives":[
				{
					"attributes":{
						"POSITION":0,
						"NORMAL":1,
						"TEXCOORD_0":2
					},
					"indices":3,
					"material":0
				}
			]
		},
		{
			"name":"Sphere",
			"primitives":[
				{
					"attributes":{
						"POSITION":4,
						"NORMAL":5,
						"TEXCOORD_0":6
					},
					"indices":7
				}
			]
		},
		{
			"name":"Sphere.001",
			"primitives":[
				{
					"attributes":{
						"POSITION":8,
						"NORMAL":9,
						"TEXCOORD_0":10
					},
					"indices":11
				}
			]
		},
		{
			"name":"Sphere.002",
			"primitives":[
				{
					"attributes":{
						"POSITION":12,
						"NORMAL":13,
						"TEXCOORD_0":14
					},
					"indices":7
				}
			]
		},
		{
			"name":"Sphere.003",
			"primitives":[
				{
					"attributes":{
						"POSITION":15,
						"NORMAL":16,
						"TEXCOORD_0":17
					},
					"indices":7
				}
			]
		},
		{
			"name":"Sphere.004",
			"primitives":[
				{
					"attributes":{
						"POSITION":18,
						"NORMAL":19,
						"TEXCOORD_0":20
					},
					"indices":21
				}
			]
		},
		{
			"name":"Sphere.005",
			"primitives":[
				{
					"attributes":{
						"POSITION":22,
						"NORMAL":23,
						"TEXCOORD_0":24
					},
					"indices":25
				}
			]
		},
		{
			"name":"Sphere.006",
			"primitives":[
				{
					"attributes":{
						"POSITION":26,
						"NORMAL":27,
						"TEXCOORD_0":28
					},
					"indices":29
				}
			]
		},
		{
			"name":"Sphere.007",
			"primitives":[
				{
					"attributes":{
						"POSITION":30,
						"NORMAL":31,
						"TEXCOORD_0":32
					},
					"indices":7
				}
			]
		},
		{
			"name":"Sphere.008",
			"primitives":[
				{
					"attributes":{
						"POSITION":33,
						"NORMAL":34,
						"TEXCOORD_0":35
					},
					"indices":7
				}
			]
		}
	],
	"accessors":[
		{
			"bufferView":0,
			"componentType":5126,
			"count":55317,
			"max":[
				2.191851854324341,
				0.7922317981719971,
				1.304495930671692
			],
			"min":[
				-2.1990108489990234,
				-1.0459128618240356,
				-0.9371572136878967
			],
			"type":"VEC3"
		},
		{
			"bufferView":1,
			"componentType":5126,
			"count":55317,
			"type":"VEC3"
		},
		{
			"bufferView":2,
			"componentType":5126,
			"count":55317,
			"type":"VEC2"
		},
		{
			"bufferView":3,
			"componentType":5123,
			"count":327630,
			"type":"SCALAR"
		},
		{
			"bufferView":4,
			"componentType":5126,
			"count":559,
			"max":[
				1.000000238418579,
				1,
				1.0000003576278687
			],
			"min":[
				-0.9999998211860657,
				-1,
				-1
			],
			"type":"VEC3"
		},
		{
			"bufferView":5,
			"componentType":5126,
			"count":559,
			"type":"VEC3"
		},
		{
			"bufferView":6,
			"componentType":5126,
			"count":559,
			"type":"VEC2"
		},
		{
			"bufferView":7,
			"componentType":5123,
			"count":2880,
			"type":"SCALAR"
		},
		{
			"bufferView":8,
			"componentType":5126,
			"count":559,
			"max":[
				1.000000238418579,
				1.0414149761199951,
				1.0000003576278687
			],
			"min":[
				-0.9999998211860657,
				-1,
				-1.1725242137908936
			],
			"type":"VEC3"
		},
		{
			"bufferView":9,
			"componentType":5126,
			"count":559,
			"type":"VEC3"
		},
		{
			"bufferView":10,
			"componentType":5126,
			"count":559,
			"type":"VEC2"
		},
		{
			"bufferView":11,
			"componentType":5123,
			"count":2880,
			"type":"SCALAR"
		},
		{
			"bufferView":12,
			"componentType":5126,
			"count":559,
			"max":[
				1.000000238418579,
				1.0081522464752197,
				1.0000003576278687
			],
			"min":[
				-1.0143063068389893,
				-1,
				-1.311127781867981
			],
			"type":"VEC3"
		},
		{
			"bufferView":13,
			"componentType":5126,
			"count":559,
			"type":"VEC3"
		},
		{
			"bufferView":14,
			"componentType":5126,
			"count":559,
			"type":"VEC2"
		},
		{
			"bufferView":15,
			"componentType":5126,
			"count":559,
			"max":[
				1.000000238418579,
				1,
				1.0000003576278687
			],
			"min":[
				-0.9999998211860657,
				-1,
				-1.567232608795166
			],
			"type":"VEC3"
		},
		{
			"bufferView":16,
			"componentType":5126,
			"count":559,
			"type":"VEC3"
		},
		{
			"bufferView":17,
			"componentType":5126,
			"count":559,
			"type":"VEC2"
		},
		{
			"bufferView":18,
			"componentType":5126,
			"count":1794,
			"max":[
				0.9999849796295166,
				1.1518610715866089,
				1.0003353357315063
			],
			"min":[
				-1.1982353925704956,
				-0.9998886585235596,
				-2.6205649375915527
			],
			"type":"VEC3"
		},
		{
			"bufferView":19,
			"componentType":5126,
			"count":1794,
			"type":"VEC3"
		},
		{
			"bufferView":20,
			"componentType":5126,
			"count":1794,
			"type":"VEC2"
		},
		{
			"bufferView":21,
			"componentType":5123,
			"count":10668,
			"type":"SCALAR"
		},
		{
			"bufferView":22,
			"componentType":5126,
			"count":559,
			"max":[
				1.000000238418579,
				1,
				1.0000003576278687
			],
			"min":[
				-0.9999998211860657,
				-1.0001006126403809,
				-1.1060043573379517
			],
			"type":"VEC3"
		},
		{
			"bufferView":23,
			"componentType":5126,
			"count":559,
			"type":"VEC3"
		},
		{
			"bufferView":24,
			"componentType":5126,
			"count":559,
			"type":"VEC2"
		},
		{
			"bufferView":25,
			"componentType":5123,
			"count":2880,
			"type":"SCALAR"
		},
		{
			"bufferView":26,
			"componentType":5126,
			"count":1118,
			"max":[
				6.170770645141602,
				1,
				1.0000003576278687
			],
			"min":[
				-0.9999998211860657,
				-1.007435917854309,
				-1.3221943378448486
			],
			"type":"VEC3"
		},
		{
			"bufferView":27,
			"componentType":5126,
			"count":1118,
			"type":"VEC3"
		},
		{
			"bufferView":28,
			"componentType":5126,
			"count":1118,
			"type":"VEC2"
		},
		{
			"bufferView":29,
			"componentType":5123,
			"count":5760,
			"type":"SCALAR"
		},
		{
			"bufferView":30,
			"componentType":5126,
			"count":559,
			"max":[
				1.000000238418579,
				1,
				1.0000003576278687
			],
			"min":[
				-0.9999998211860657,
				-1,
				-1.4610689878463745
			],
			"type":"VEC3"
		},
		{
			"bufferView":31,
			"componentType":5126,
			"count":559,
			"type":"VEC3"
		},
		{
			"bufferView":32,
			"componentType":5126,
			"count":559,
			"type":"VEC2"
		},
		{
			"bufferView":33,
			"componentType":5126,
			"count":559,
			"max":[
				1.0001380443572998,
				1,
				1.4233593940734863
			],
			"min":[
				-0.9999998211860657,
				-1,
				-1
			],
			"type":"VEC3"
		},
		{
			"bufferView":34,
			"componentType":5126,
			"count":559,
			"type":"VEC3"
		},
		{
			"bufferView":35,
			"componentType":5126,
			"count":559,
			"type":"VEC2"
		}
	],
	"bufferViews":[
		{
			"buffer":0,
			"byteLength":663804,
			"byteOffset":0,
			"target":34962
		},
		{
			"buffer":0,
			"byteLength":663804,
			"byteOffset":663804,
			"target":34962
		},
		{
			"buffer":0,
			"byteLength":442536,
			"byteOffset":1327608,
			"target":34962
		},
		{
			"buffer":0,
			"byteLength":655260,
			"byteOffset":1770144,
			"target":34963
		},
		{
			"buffer":0,
			"byteLength":6708,
			"byteOffset":2425404,
			"target":34962
		},
		{
			"buffer":0,
			"byteLength":6708,
			"byteOffset":2432112,
			"target":34962
		},
		{
			"buffer":0,
			"byteLength":4472,
			"byteOffset":2438820,
			"target":34962
		},
		{
			"buffer":0,
			"byteLength":5760,
			"byteOffset":2443292,
			"target":34963
		},
		{
			"buffer":0,
			"byteLength":6708,
			"byteOffset":2449052,
			"target":34962
		},
		{
			"buffer":0,
			"byteLength":6708,
			"byteOffset":2455760,
			"target":34962
		},
		{
			"buffer":0,
			"byteLength":4472,
			"byteOffset":2462468,
			"target":34962
		},
		{
			"buffer":0,
			"byteLength":5760,
			"byteOffset":2466940,
			"target":34963
		},
		{
			"buffer":0,
			"byteLength":6708,
			"byteOffset":2472700,
			"target":34962
		},
		{
			"buffer":0,
			"byteLength":6708,
			"byteOffset":2479408,
			"target":34962
		},
		{
			"buffer":0,
			"byteLength":4472,
			"byteOffset":2486116,
			"target":34962
		},
		{
			"buffer":0,
			"byteLength":6708,
			"byteOffset":2490588,
			"target":34962
		},
		{
			"buffer":0,
			"byteLength":6708,
			"byteOffset":2497296,
			"target":34962
		},
		{
			"buffer":0,
			"byteLength":4472,
			"byteOffset":2504004,
			"target":34962
		},
		{
			"buffer":0,
			"byteLength":21528,
			"byteOffset":2508476,
			"target":34962
		},
		{
			"buffer":0,
			"byteLength":21528,
			"byteOffset":2530004,
			"target":34962
		},
		{
			"buffer":0,
			"byteLength":14352,
			"byteOffset":2551532,
			"target":34962
		},
		{
			"buffer":0,
			"byteLength":21336,
			"byteOffset":2565884,
			"target":34963
		},
		{
			"buffer":0,
			"byteLength":6708,
			"byteOffset":2587220,
			"target":34962
		},
		{
			"buffer":0,
			"byteLength":6708,
			"byteOffset":2593928,
			"target":34962
		},
		{
			"buffer":0,
			"byteLength":4472,
			"byteOffset":2600636,
			"target":34962
		},
		{
			"buffer":0,
			"byteLength":5760,
			"byteOffset":2605108,
			"target":34963
		},
		{
			"buffer":0,
			"byteLength":13416,
			"byteOffset":2610868,
			"target":34962
		},
		{
			"buffer":0,
			"byteLength":13416,
			"byteOffset":2624284,
			"target":34962
		},
		{
			"buffer":0,
			"byteLength":8944,
			"byteOffset":2637700,
			"target":34962
		},
		{
			"buffer":0,
			"byteLength":11520,
			"byteOffset":2646644,
			"target":34963
		},
		{
			"buffer":0,
			"byteLength":6708,
			"byteOffset":2658164,
			"target":34962
		},
		{
			"buffer":0,
			"byteLength":6708,
			"byteOffset":2664872,
			"target":34962
		},
		{
			"buffer":0,
			"byteLength":4472,
			"byteOffset":2671580,
			"target":34962
		},
		{
			"buffer":0,
			"byteLength":6708,
			"byteOffset":2676052,
			"target":34962
		},
		{
			"buffer":0,
			"byteLength":6708,
			"byteOffset":2682760,
			"target":34962
		},
		{
			"buffer":0,
			"byteLength":4472,
			"byteOffset":2689468,
			"target":34962
		}
	],
	"buffers":[
		{
			"byteLength":2693940,
			"uri":"Cabeza%20Duende%201.5.bin"
		}
	]
}
