{
	"asset":{
		"generator":"Khronos glTF Blender I/O v4.0.44",
		"version":"2.0"
	},
	"extensionsUsed":[
		"KHR_materials_emissive_strength",
		"KHR_materials_specular",
		"KHR_materials_ior",
		"KHR_lights_punctual"
	],
	"extensionsRequired":[
		"KHR_lights_punctual"
	],
	"extensions":{
		"KHR_lights_punctual":{
			"lights":[
				{
					"color":[
						1,
						0.008219769224524498,
						0
					],
					"intensity":543.5141306588226,
					"type":"point",
					"name":"Light"
				},
				{
					"color":[
						1,
						0,
						0.00291601475328207
					],
					"intensity":945.7145666129326,
					"type":"point",
					"name":"Point"
				}
			]
		}
	},
	"scene":0,
	"scenes":[
		{
			"name":"Scene",
			"nodes":[
				0,
				1,
				2,
				3,
				4
			]
		}
	],
	"nodes":[
		{
			"mesh":0,
			"name":"Cabeza Duende Sculp",
			"rotation":[
				-0.21453578770160675,
				0,
				0,
				0.9767161011695862
			],
			"scale":[
				0.3927871584892273,
				0.6327593326568604,
				0.43689098954200745
			],
			"translation":[
				-0.6056986451148987,
				0.7455341815948486,
				0.5805557370185852
			]
		},
		{
			"extensions":{
				"KHR_lights_punctual":{
					"light":0
				}
			},
			"name":"Light",
			"rotation":[
				-0.28416627645492554,
				0.7269423007965088,
				0.34203392267227173,
				0.5232754945755005
			],
			"translation":[
				-0.6110925674438477,
				0.9773246645927429,
				-0.202412411570549
			]
		},
		{
			"camera":0,
			"name":"Camera",
			"rotation":[
				-0.2089778482913971,
				0.1553487926721573,
				0.03364505618810654,
				0.9649161100387573
			],
			"translation":[
				0.5080441832542419,
				2.520442485809326,
				4.288329124450684
			]
		},
		{
			"name":"Area",
			"rotation":[
				0.5048961043357849,
				0,
				0,
				0.8631801605224609
			],
			"translation":[
				-0.5860557556152344,
				-0.19830122590065002,
				1.116227149963379
			]
		},
		{
			"extensions":{
				"KHR_lights_punctual":{
					"light":1
				}
			},
			"name":"Point",
			"rotation":[
				-0.7071068286895752,
				0,
				0,
				0.7071068286895752
			],
			"translation":[
				-0.9659551382064819,
				1.2090106010437012,
				1.281184196472168
			]
		}
	],
	"cameras":[
		{
			"name":"Camera",
			"perspective":{
				"aspectRatio":1.7777777777777777,
				"yfov":0.39959652046304894,
				"zfar":100,
				"znear":0.10000000149011612
			},
			"type":"perspective"
		}
	],
	"materials":[
		{
			"doubleSided":true,
			"name":"Material",
			"pbrMetallicRoughness":{
				"baseColorFactor":[
					0.800000011920929,
					0.800000011920929,
					0.800000011920929,
					1
				],
				"metallicFactor":0,
				"roughnessFactor":0.4000000059604645
			}
		},
		{
			"doubleSided":true,
			"emissiveFactor":[
				1,
				0,
				0
			],
			"extensions":{
				"KHR_materials_emissive_strength":{
					"emissiveStrength":50
				},
				"KHR_materials_specular":{
					"specularFactor":0
				},
				"KHR_materials_ior":{
					"ior":1.4500000476837158
				}
			},
			"name":"Material.001",
			"pbrMetallicRoughness":{
				"baseColorFactor":[
					0.8000000715255737,
					0.001263778773136437,
					0,
					1
				],
				"metallicFactor":100,
				"roughnessFactor":0
			}
		}
	],
	"meshes":[
		{
			"name":"Cube",
			"primitives":[
				{
					"attributes":{
						"POSITION":0,
						"NORMAL":1,
						"TEXCOORD_0":2,
						"TANGENT":3
					},
					"indices":4,
					"material":0
				},
				{
					"attributes":{
						"POSITION":5,
						"NORMAL":6,
						"TEXCOORD_0":7,
						"TANGENT":8
					},
					"indices":9,
					"material":1
				}
			]
		}
	],
	"accessors":[
		{
			"bufferView":0,
			"componentType":5126,
			"count":55329,
			"max":[
				1.8393439054489136,
				1.4959532022476196,
				1.3255541324615479
			],
			"min":[
				-1.853812336921692,
				-1.0149874687194824,
				-0.9371539950370789
			],
			"type":"VEC3"
		},
		{
			"bufferView":1,
			"componentType":5126,
			"count":55329,
			"type":"VEC3"
		},
		{
			"bufferView":2,
			"componentType":5126,
			"count":55329,
			"type":"VEC2"
		},
		{
			"bufferView":3,
			"componentType":5126,
			"count":55329,
			"type":"VEC4"
		},
		{
			"bufferView":4,
			"componentType":5123,
			"count":327630,
			"type":"SCALAR"
		},
		{
			"bufferView":5,
			"componentType":5126,
			"count":12532,
			"max":[
				0.6570252180099487,
				0.24967174232006073,
				0.6231897473335266
			],
			"min":[
				-0.6570252180099487,
				-0.836931586265564,
				0.3622474670410156
			],
			"type":"VEC3"
		},
		{
			"bufferView":6,
			"componentType":5126,
			"count":12532,
			"type":"VEC3"
		},
		{
			"bufferView":7,
			"componentType":5126,
			"count":12532,
			"type":"VEC2"
		},
		{
			"bufferView":8,
			"componentType":5126,
			"count":12532,
			"type":"VEC4"
		},
		{
			"bufferView":9,
			"componentType":5123,
			"count":67416,
			"type":"SCALAR"
		}
	],
	"bufferViews":[
		{
			"buffer":0,
			"byteLength":663948,
			"byteOffset":0,
			"target":34962
		},
		{
			"buffer":0,
			"byteLength":663948,
			"byteOffset":663948,
			"target":34962
		},
		{
			"buffer":0,
			"byteLength":442632,
			"byteOffset":1327896,
			"target":34962
		},
		{
			"buffer":0,
			"byteLength":885264,
			"byteOffset":1770528,
			"target":34962
		},
		{
			"buffer":0,
			"byteLength":655260,
			"byteOffset":2655792,
			"target":34963
		},
		{
			"buffer":0,
			"byteLength":150384,
			"byteOffset":3311052,
			"target":34962
		},
		{
			"buffer":0,
			"byteLength":150384,
			"byteOffset":3461436,
			"target":34962
		},
		{
			"buffer":0,
			"byteLength":100256,
			"byteOffset":3611820,
			"target":34962
		},
		{
			"buffer":0,
			"byteLength":200512,
			"byteOffset":3712076,
			"target":34962
		},
		{
			"buffer":0,
			"byteLength":134832,
			"byteOffset":3912588,
			"target":34963
		}
	],
	"buffers":[
		{
			"byteLength":4047420,
			"uri":"Cabeza%20Duende%201.9.bin"
		}
	]
}
