{
	"asset":{
		"generator":"Khronos glTF Blender I/O v4.0.44",
		"version":"2.0"
	},
	"extensionsUsed":[
		"KHR_materials_specular",
		"KHR_materials_ior"
	],
	"scene":0,
	"scenes":[
		{
			"name":"Scene",
			"nodes":[
				0,
				1,
				2,
				3,
				4,
				5,
				6,
				7,
				8,
				9,
				10
			]
		}
	],
	"nodes":[
		{
			"mesh":0,
			"name":"Mesa",
			"scale":[
				0.5,
				0.02500000037252903,
				0.5
			],
			"translation":[
				1.851454496383667,
				0.7238791584968567,
				-2.1297645568847656
			]
		},
		{
			"mesh":1,
			"name":"Termo",
			"translation":[
				1.627016305923462,
				0.7399606704711914,
				-2.161702871322632
			]
		},
		{
			"mesh":2,
			"name":"Mate",
			"translation":[
				1.825211763381958,
				0.7461827993392944,
				-1.8796203136444092
			]
		},
		{
			"mesh":3,
			"name":"Bombilla",
			"rotation":[
				0.1299777776002884,
				0.19730211794376373,
				-0.3088752329349518,
				0.9212892055511475
			],
			"scale":[
				0.004669327288866043,
				0.11547461152076721,
				0.002158100251108408
			],
			"translation":[
				1.8757351636886597,
				1.003301739692688,
				-2.246631145477295
			]
		},
		{
			"mesh":4,
			"name":"Silla",
			"rotation":[
				0,
				-0.2577815651893616,
				0,
				0.9662033319473267
			],
			"scale":[
				0.24278292059898376,
				0.014522607438266277,
				0.24278292059898376
			],
			"translation":[
				1.7848197221755981,
				0.379491925239563,
				-1.3553013801574707
			]
		},
		{
			"mesh":5,
			"name":"Casa",
			"scale":[
				2.750485897064209,
				1.2210419178009033,
				3.326267719268799
			],
			"translation":[
				2.011176347732544,
				-0.10008949041366577,
				-2.1063895225524902
			]
		},
		{
			"mesh":6,
			"name":"Silla2",
			"rotation":[
				0,
				0.9997696876525879,
				0,
				0.02146170102059841
			],
			"scale":[
				0.24278292059898376,
				0.014522607438266277,
				0.24278292059898376
			],
			"translation":[
				1.8902150392532349,
				0.3788975477218628,
				-2.734374523162842
			]
		},
		{
			"mesh":7,
			"name":"Puerta",
			"rotation":[
				0.9458420276641846,
				0,
				-0.32462751865386963,
				0
			],
			"scale":[
				-0.6689749360084534,
				-1.2210419178009033,
				-0.041574232280254364
			],
			"translation":[
				-0.04172492027282715,
				1.0057052373886108,
				-4.471279144287109
			]
		},
		{
			"mesh":8,
			"name":"Plato",
			"scale":[
				0.1478779911994934,
				0.32079827785491943,
				0.1478779911994934
			],
			"translation":[
				2.0540173053741455,
				0.7543972134590149,
				-2.0921385288238525
			]
		},
		{
			"mesh":9,
			"name":"Techo",
			"scale":[
				3.9891226291656494,
				1,
				1.158659815788269
			],
			"translation":[
				2.070934534072876,
				2.6672885417938232,
				-2.122262477874756
			]
		},
		{
			"mesh":10,
			"name":"Piso",
			"scale":[
				3.9891226291656494,
				1,
				1.158659815788269
			],
			"translation":[
				2.070934534072876,
				-0.16441231966018677,
				-2.122262477874756
			]
		}
	],
	"materials":[
		{
			"doubleSided":true,
			"extensions":{
				"KHR_materials_specular":{
					"specularFactor":0
				},
				"KHR_materials_ior":{
					"ior":1.4500000476837158
				}
			},
			"name":"Metal Termo",
			"pbrMetallicRoughness":{
				"baseColorFactor":[
					0.14362139999866486,
					0.25074124336242676,
					0.8000000715255737,
					1
				],
				"roughnessFactor":0.2454545497894287
			}
		},
		{
			"doubleSided":true,
			"name":"Material.002",
			"pbrMetallicRoughness":{
				"baseColorTexture":{
					"index":0
				},
				"metallicFactor":0,
				"roughnessFactor":0.5
			}
		},
		{
			"doubleSided":true,
			"name":"Material",
			"pbrMetallicRoughness":{
				"baseColorTexture":{
					"index":1
				},
				"metallicFactor":0,
				"roughnessFactor":0.5
			}
		},
		{
			"doubleSided":true,
			"extensions":{
				"KHR_materials_specular":{
					"specularColorFactor":[
						2.0,
						2.0,
						2.0
					]
				},
				"KHR_materials_ior":{
					"ior":1.4500000476837158
				}
			},
			"name":"Material.003",
			"pbrMetallicRoughness":{
				"baseColorTexture":{
					"index":2
				},
				"metallicFactor":0,
				"roughnessFactor":0.29545456171035767
			}
		}
	],
	"meshes":[
		{
			"name":"Cubo",
			"primitives":[
				{
					"attributes":{
						"POSITION":0,
						"NORMAL":1,
						"TEXCOORD_0":2
					},
					"indices":3
				}
			]
		},
		{
			"name":"Vert",
			"primitives":[
				{
					"attributes":{
						"POSITION":4,
						"NORMAL":5
					},
					"indices":6,
					"material":0
				}
			]
		},
		{
			"name":"Vert.001",
			"primitives":[
				{
					"attributes":{
						"POSITION":7,
						"NORMAL":8
					},
					"indices":9
				}
			]
		},
		{
			"name":"Cilindro",
			"primitives":[
				{
					"attributes":{
						"POSITION":10,
						"NORMAL":11,
						"TEXCOORD_0":12
					},
					"indices":13
				}
			]
		},
		{
			"name":"Cubo.001",
			"primitives":[
				{
					"attributes":{
						"POSITION":14,
						"NORMAL":15,
						"TEXCOORD_0":16
					},
					"indices":17
				}
			]
		},
		{
			"name":"Plano",
			"primitives":[
				{
					"attributes":{
						"POSITION":18,
						"NORMAL":19,
						"TEXCOORD_0":20
					},
					"indices":21,
					"material":1
				}
			]
		},
		{
			"name":"Cubo.004",
			"primitives":[
				{
					"attributes":{
						"POSITION":22,
						"NORMAL":23,
						"TEXCOORD_0":24
					},
					"indices":17
				}
			]
		},
		{
			"name":"Cubo.007",
			"primitives":[
				{
					"attributes":{
						"POSITION":25,
						"NORMAL":26,
						"TEXCOORD_0":27
					},
					"indices":28,
					"material":2
				}
			]
		},
		{
			"name":"Cilindro.002",
			"primitives":[
				{
					"attributes":{
						"POSITION":29,
						"NORMAL":30,
						"TEXCOORD_0":31
					},
					"indices":32
				}
			]
		},
		{
			"name":"Cube",
			"primitives":[
				{
					"attributes":{
						"POSITION":33,
						"NORMAL":34,
						"TEXCOORD_0":35
					},
					"indices":36
				}
			]
		},
		{
			"name":"Cube.001",
			"primitives":[
				{
					"attributes":{
						"POSITION":37,
						"NORMAL":38,
						"TEXCOORD_0":39
					},
					"indices":36,
					"material":3
				}
			]
		}
	],
	"textures":[
		{
			"sampler":0,
			"source":0
		},
		{
			"sampler":0,
			"source":1
		},
		{
			"sampler":0,
			"source":2
		}
	],
	"images":[
		{
			"mimeType":"image/jpeg",
			"name":"flower-design-ceramic-kitchen-tiles-500x500",
			"uri":"flower-design-ceramic-kitchen-tiles-500x500.jpg"
		},
		{
			"mimeType":"image/jpeg",
			"name":"bloom-decorative-laminated-door-elegant-sdl550916527-1-dbc97",
			"uri":"bloom-decorative-laminated-door-elegant-sdl550916527-1-dbc97.jpg"
		},
		{
			"mimeType":"image/jpeg",
			"name":"waterproof-ceramic-tiles-250x250",
			"uri":"waterproof-ceramic-tiles-250x250.jpg"
		}
	],
	"accessors":[
		{
			"bufferView":0,
			"componentType":5126,
			"count":406,
			"max":[
				1,
				1,
				1
			],
			"min":[
				-1,
				-33,
				-1
			],
			"type":"VEC3"
		},
		{
			"bufferView":1,
			"componentType":5126,
			"count":406,
			"type":"VEC3"
		},
		{
			"bufferView":2,
			"componentType":5126,
			"count":406,
			"type":"VEC2"
		},
		{
			"bufferView":3,
			"componentType":5123,
			"count":1050,
			"type":"SCALAR"
		},
		{
			"bufferView":4,
			"componentType":5126,
			"count":346395,
			"max":[
				0.0942176952958107,
				0.654808759689331,
				0.08992143720388412
			],
			"min":[
				-0.08467910438776016,
				0,
				-0.09315671026706696
			],
			"type":"VEC3"
		},
		{
			"bufferView":5,
			"componentType":5126,
			"count":346395,
			"type":"VEC3"
		},
		{
			"bufferView":6,
			"componentType":5125,
			"count":714528,
			"type":"SCALAR"
		},
		{
			"bufferView":7,
			"componentType":5126,
			"count":140,
			"max":[
				0.10027305781841278,
				0.16661831736564636,
				0.10027305781841278
			],
			"min":[
				-0.10027305781841278,
				0,
				-0.09288498759269714
			],
			"type":"VEC3"
		},
		{
			"bufferView":8,
			"componentType":5126,
			"count":140,
			"type":"VEC3"
		},
		{
			"bufferView":9,
			"componentType":5123,
			"count":576,
			"type":"SCALAR"
		},
		{
			"bufferView":10,
			"componentType":5126,
			"count":192,
			"max":[
				1,
				1,
				1
			],
			"min":[
				-1,
				-1,
				-1
			],
			"type":"VEC3"
		},
		{
			"bufferView":11,
			"componentType":5126,
			"count":192,
			"type":"VEC3"
		},
		{
			"bufferView":12,
			"componentType":5126,
			"count":192,
			"type":"VEC2"
		},
		{
			"bufferView":13,
			"componentType":5123,
			"count":372,
			"type":"SCALAR"
		},
		{
			"bufferView":14,
			"componentType":5126,
			"count":684,
			"max":[
				1,
				38.87199020385742,
				1
			],
			"min":[
				-1,
				-33,
				-1
			],
			"type":"VEC3"
		},
		{
			"bufferView":15,
			"componentType":5126,
			"count":684,
			"type":"VEC3"
		},
		{
			"bufferView":16,
			"componentType":5126,
			"count":684,
			"type":"VEC2"
		},
		{
			"bufferView":17,
			"componentType":5123,
			"count":1674,
			"type":"SCALAR"
		},
		{
			"bufferView":18,
			"componentType":5126,
			"count":114,
			"max":[
				1,
				2.2036216259002686,
				1
			],
			"min":[
				-1,
				0,
				-1
			],
			"type":"VEC3"
		},
		{
			"bufferView":19,
			"componentType":5126,
			"count":114,
			"type":"VEC3"
		},
		{
			"bufferView":20,
			"componentType":5126,
			"count":114,
			"type":"VEC2"
		},
		{
			"bufferView":21,
			"componentType":5123,
			"count":258,
			"type":"SCALAR"
		},
		{
			"bufferView":22,
			"componentType":5126,
			"count":684,
			"max":[
				1,
				38.87199020385742,
				1
			],
			"min":[
				-1,
				-33,
				-1
			],
			"type":"VEC3"
		},
		{
			"bufferView":23,
			"componentType":5126,
			"count":684,
			"type":"VEC3"
		},
		{
			"bufferView":24,
			"componentType":5126,
			"count":684,
			"type":"VEC2"
		},
		{
			"bufferView":25,
			"componentType":5126,
			"count":164,
			"max":[
				0.8999999761581421,
				0.8999999761581421,
				1.566666603088379
			],
			"min":[
				-0.8999999761581421,
				-0.8999999761581421,
				-1.566666603088379
			],
			"type":"VEC3"
		},
		{
			"bufferView":26,
			"componentType":5126,
			"count":164,
			"type":"VEC3"
		},
		{
			"bufferView":27,
			"componentType":5126,
			"count":164,
			"type":"VEC2"
		},
		{
			"bufferView":28,
			"componentType":5123,
			"count":372,
			"type":"SCALAR"
		},
		{
			"bufferView":29,
			"componentType":5126,
			"count":522,
			"max":[
				0.9997079968452454,
				0.01500004529953003,
				0.9988322854042053
			],
			"min":[
				-0.9997079968452454,
				-0.019416574388742447,
				-1
			],
			"type":"VEC3"
		},
		{
			"bufferView":30,
			"componentType":5126,
			"count":522,
			"type":"VEC3"
		},
		{
			"bufferView":31,
			"componentType":5126,
			"count":522,
			"type":"VEC2"
		},
		{
			"bufferView":32,
			"componentType":5123,
			"count":1548,
			"type":"SCALAR"
		},
		{
			"bufferView":33,
			"componentType":5126,
			"count":32,
			"max":[
				0.7371602058410645,
				0.06724762916564941,
				3.2671618461608887
			],
			"min":[
				-0.7371602058410645,
				-0.06724762916564941,
				-3.2671618461608887
			],
			"type":"VEC3"
		},
		{
			"bufferView":34,
			"componentType":5126,
			"count":32,
			"type":"VEC3"
		},
		{
			"bufferView":35,
			"componentType":5126,
			"count":32,
			"type":"VEC2"
		},
		{
			"bufferView":36,
			"componentType":5123,
			"count":60,
			"type":"SCALAR"
		},
		{
			"bufferView":37,
			"componentType":5126,
			"count":32,
			"max":[
				0.7371602058410645,
				0.06724762916564941,
				3.2671618461608887
			],
			"min":[
				-0.7371602058410645,
				-0.06724762916564941,
				-3.2671618461608887
			],
			"type":"VEC3"
		},
		{
			"bufferView":38,
			"componentType":5126,
			"count":32,
			"type":"VEC3"
		},
		{
			"bufferView":39,
			"componentType":5126,
			"count":32,
			"type":"VEC2"
		}
	],
	"bufferViews":[
		{
			"buffer":0,
			"byteLength":4872,
			"byteOffset":0,
			"target":34962
		},
		{
			"buffer":0,
			"byteLength":4872,
			"byteOffset":4872,
			"target":34962
		},
		{
			"buffer":0,
			"byteLength":3248,
			"byteOffset":9744,
			"target":34962
		},
		{
			"buffer":0,
			"byteLength":2100,
			"byteOffset":12992,
			"target":34963
		},
		{
			"buffer":0,
			"byteLength":4156740,
			"byteOffset":15092,
			"target":34962
		},
		{
			"buffer":0,
			"byteLength":4156740,
			"byteOffset":4171832,
			"target":34962
		},
		{
			"buffer":0,
			"byteLength":2858112,
			"byteOffset":8328572,
			"target":34963
		},
		{
			"buffer":0,
			"byteLength":1680,
			"byteOffset":11186684,
			"target":34962
		},
		{
			"buffer":0,
			"byteLength":1680,
			"byteOffset":11188364,
			"target":34962
		},
		{
			"buffer":0,
			"byteLength":1152,
			"byteOffset":11190044,
			"target":34963
		},
		{
			"buffer":0,
			"byteLength":2304,
			"byteOffset":11191196,
			"target":34962
		},
		{
			"buffer":0,
			"byteLength":2304,
			"byteOffset":11193500,
			"target":34962
		},
		{
			"buffer":0,
			"byteLength":1536,
			"byteOffset":11195804,
			"target":34962
		},
		{
			"buffer":0,
			"byteLength":744,
			"byteOffset":11197340,
			"target":34963
		},
		{
			"buffer":0,
			"byteLength":8208,
			"byteOffset":11198084,
			"target":34962
		},
		{
			"buffer":0,
			"byteLength":8208,
			"byteOffset":11206292,
			"target":34962
		},
		{
			"buffer":0,
			"byteLength":5472,
			"byteOffset":11214500,
			"target":34962
		},
		{
			"buffer":0,
			"byteLength":3348,
			"byteOffset":11219972,
			"target":34963
		},
		{
			"buffer":0,
			"byteLength":1368,
			"byteOffset":11223320,
			"target":34962
		},
		{
			"buffer":0,
			"byteLength":1368,
			"byteOffset":11224688,
			"target":34962
		},
		{
			"buffer":0,
			"byteLength":912,
			"byteOffset":11226056,
			"target":34962
		},
		{
			"buffer":0,
			"byteLength":516,
			"byteOffset":11226968,
			"target":34963
		},
		{
			"buffer":0,
			"byteLength":8208,
			"byteOffset":11227484,
			"target":34962
		},
		{
			"buffer":0,
			"byteLength":8208,
			"byteOffset":11235692,
			"target":34962
		},
		{
			"buffer":0,
			"byteLength":5472,
			"byteOffset":11243900,
			"target":34962
		},
		{
			"buffer":0,
			"byteLength":1968,
			"byteOffset":11249372,
			"target":34962
		},
		{
			"buffer":0,
			"byteLength":1968,
			"byteOffset":11251340,
			"target":34962
		},
		{
			"buffer":0,
			"byteLength":1312,
			"byteOffset":11253308,
			"target":34962
		},
		{
			"buffer":0,
			"byteLength":744,
			"byteOffset":11254620,
			"target":34963
		},
		{
			"buffer":0,
			"byteLength":6264,
			"byteOffset":11255364,
			"target":34962
		},
		{
			"buffer":0,
			"byteLength":6264,
			"byteOffset":11261628,
			"target":34962
		},
		{
			"buffer":0,
			"byteLength":4176,
			"byteOffset":11267892,
			"target":34962
		},
		{
			"buffer":0,
			"byteLength":3096,
			"byteOffset":11272068,
			"target":34963
		},
		{
			"buffer":0,
			"byteLength":384,
			"byteOffset":11275164,
			"target":34962
		},
		{
			"buffer":0,
			"byteLength":384,
			"byteOffset":11275548,
			"target":34962
		},
		{
			"buffer":0,
			"byteLength":256,
			"byteOffset":11275932,
			"target":34962
		},
		{
			"buffer":0,
			"byteLength":120,
			"byteOffset":11276188,
			"target":34963
		},
		{
			"buffer":0,
			"byteLength":384,
			"byteOffset":11276308,
			"target":34962
		},
		{
			"buffer":0,
			"byteLength":384,
			"byteOffset":11276692,
			"target":34962
		},
		{
			"buffer":0,
			"byteLength":256,
			"byteOffset":11277076,
			"target":34962
		}
	],
	"samplers":[
		{
			"magFilter":9729,
			"minFilter":9987
		}
	],
	"buffers":[
		{
			"byteLength":11277332,
			"uri":"mesa%20y%20mate%20Texturas3.bin"
		}
	]
}
