{
	"asset":{
		"generator":"Khronos glTF Blender I/O v4.0.44",
		"version":"2.0"
	},
	"extensionsUsed":[
		"KHR_materials_specular",
		"KHR_materials_ior"
	],
	"scene":0,
	"scenes":[
		{
			"name":"Scene",
			"nodes":[
				0,
				1,
				2
			]
		}
	],
	"nodes":[
		{
			"mesh":0,
			"name":"Sombreso",
			"rotation":[
				-0.061926111578941345,
				0.4861230254173279,
				0.01138625293970108,
				0.8716191649436951
			],
			"scale":[
				1.1239230632781982,
				0.9105218052864075,
				0.9105216264724731
			],
			"translation":[
				4.06129264831543,
				4.787597179412842,
				-0.4192655086517334
			]
		},
		{
			"mesh":1,
			"name":"Mu\u00f1eco",
			"rotation":[
				0,
				0.9495581388473511,
				0,
				0.31359100341796875
			],
			"scale":[
				0.8611398339271545,
				1,
				1
			],
			"translation":[
				4.154617786407471,
				2.585521697998047,
				-0.28824320435523987
			]
		},
		{
			"mesh":2,
			"name":"ojo",
			"rotation":[
				0.339049756526947,
				-0.6430934071540833,
				0.5777698755264282,
				0.371023029088974
			],
			"scale":[
				0.7073211669921875,
				0.7073211669921875,
				0.7073211669921875
			],
			"translation":[
				2.709599018096924,
				2.865112066268921,
				-0.9146261811256409
			]
		}
	],
	"materials":[
		{
			"doubleSided":true,
			"extensions":{
				"KHR_materials_specular":{
					"specularFactor":0.5545454621315002
				},
				"KHR_materials_ior":{
					"ior":1.4500000476837158
				}
			},
			"name":"Material.009",
			"pbrMetallicRoughness":{
				"baseColorTexture":{
					"index":0
				},
				"metallicFactor":0,
				"roughnessFactor":0.6272727251052856
			}
		},
		{
			"doubleSided":true,
			"extensions":{
				"KHR_materials_specular":{
					"specularFactor":0.5636363625526428
				},
				"KHR_materials_ior":{
					"ior":1.4500000476837158
				}
			},
			"name":"Material.007",
			"pbrMetallicRoughness":{
				"baseColorTexture":{
					"index":1
				},
				"metallicFactor":0,
				"roughnessFactor":0.6318181753158569
			}
		},
		{
			"doubleSided":true,
			"extensions":{
				"KHR_materials_specular":{
					"specularFactor":0
				},
				"KHR_materials_ior":{
					"ior":1.4500000476837158
				}
			},
			"name":"Material.008",
			"pbrMetallicRoughness":{
				"baseColorTexture":{
					"index":2
				},
				"metallicFactor":0.4954545497894287,
				"roughnessFactor":0.418181836605072
			}
		}
	],
	"meshes":[
		{
			"name":"Cilindro",
			"primitives":[
				{
					"attributes":{
						"POSITION":0,
						"NORMAL":1,
						"TEXCOORD_0":2
					},
					"indices":3,
					"material":0
				}
			]
		},
		{
			"name":"Cubo",
			"primitives":[
				{
					"attributes":{
						"POSITION":4,
						"NORMAL":5,
						"TEXCOORD_0":6
					},
					"indices":7,
					"material":1
				}
			]
		},
		{
			"name":"Plane.007",
			"primitives":[
				{
					"attributes":{
						"POSITION":8,
						"NORMAL":9,
						"TEXCOORD_0":10
					},
					"indices":11,
					"material":2
				}
			]
		}
	],
	"textures":[
		{
			"sampler":0,
			"source":0
		},
		{
			"sampler":0,
			"source":1
		},
		{
			"sampler":0,
			"source":2
		}
	],
	"images":[
		{
			"mimeType":"image/jpeg",
			"name":"textura-cuero-viejo_141856-489",
			"uri":"textura-cuero-viejo_141856-489.jpg"
		},
		{
			"mimeType":"image/jpeg",
			"name":"50_sliced_monster_flesh",
			"uri":"50_sliced_monster_flesh.jpg"
		},
		{
			"mimeType":"image/jpeg",
			"name":"54-542126_metal-grunge-metallic-steel-texture-textures-metal-rivets",
			"uri":"54-542126_metal-grunge-metallic-steel-texture-textures-metal-rivets.jpg"
		}
	],
	"accessors":[
		{
			"bufferView":0,
			"componentType":5126,
			"count":945,
			"max":[
				3.1736855506896973,
				-0.0019896028097718954,
				3.173685312271118
			],
			"min":[
				-3.1736855506896973,
				-1.091667652130127,
				-3.173685312271118
			],
			"type":"VEC3"
		},
		{
			"bufferView":1,
			"componentType":5126,
			"count":945,
			"type":"VEC3"
		},
		{
			"bufferView":2,
			"componentType":5126,
			"count":945,
			"type":"VEC2"
		},
		{
			"bufferView":3,
			"componentType":5123,
			"count":4848,
			"type":"SCALAR"
		},
		{
			"bufferView":4,
			"componentType":5126,
			"count":1732,
			"max":[
				1.4329931735992432,
				1.6001293659210205,
				1.0900782346725464
			],
			"min":[
				-1.0259480476379395,
				-2.7870371341705322,
				-1.4707587957382202
			],
			"type":"VEC3"
		},
		{
			"bufferView":5,
			"componentType":5126,
			"count":1732,
			"type":"VEC3"
		},
		{
			"bufferView":6,
			"componentType":5126,
			"count":1732,
			"type":"VEC2"
		},
		{
			"bufferView":7,
			"componentType":5123,
			"count":10368,
			"type":"SCALAR"
		},
		{
			"bufferView":8,
			"componentType":5126,
			"count":53248,
			"max":[
				1.4096009731292725,
				-0.14321357011795044,
				0.8096717596054077
			],
			"min":[
				-1.4096009731292725,
				-0.8467017412185669,
				-0.8096717000007629
			],
			"type":"VEC3"
		},
		{
			"bufferView":9,
			"componentType":5126,
			"count":53248,
			"type":"VEC3"
		},
		{
			"bufferView":10,
			"componentType":5126,
			"count":53248,
			"type":"VEC2"
		},
		{
			"bufferView":11,
			"componentType":5123,
			"count":79872,
			"type":"SCALAR"
		}
	],
	"bufferViews":[
		{
			"buffer":0,
			"byteLength":11340,
			"byteOffset":0,
			"target":34962
		},
		{
			"buffer":0,
			"byteLength":11340,
			"byteOffset":11340,
			"target":34962
		},
		{
			"buffer":0,
			"byteLength":7560,
			"byteOffset":22680,
			"target":34962
		},
		{
			"buffer":0,
			"byteLength":9696,
			"byteOffset":30240,
			"target":34963
		},
		{
			"buffer":0,
			"byteLength":20784,
			"byteOffset":39936,
			"target":34962
		},
		{
			"buffer":0,
			"byteLength":20784,
			"byteOffset":60720,
			"target":34962
		},
		{
			"buffer":0,
			"byteLength":13856,
			"byteOffset":81504,
			"target":34962
		},
		{
			"buffer":0,
			"byteLength":20736,
			"byteOffset":95360,
			"target":34963
		},
		{
			"buffer":0,
			"byteLength":638976,
			"byteOffset":116096,
			"target":34962
		},
		{
			"buffer":0,
			"byteLength":638976,
			"byteOffset":755072,
			"target":34962
		},
		{
			"buffer":0,
			"byteLength":425984,
			"byteOffset":1394048,
			"target":34962
		},
		{
			"buffer":0,
			"byteLength":159744,
			"byteOffset":1820032,
			"target":34963
		}
	],
	"samplers":[
		{
			"magFilter":9729,
			"minFilter":9987
		}
	],
	"buffers":[
		{
			"byteLength":1979776,
			"uri":"Munecos%202.10.bin"
		}
	]
}
