<svg width="33" height="33" viewBox="0 0 33 33" fill="none" xmlns="http://www.w3.org/2000/svg">
<path d="M21.8842 16.2254C21.8842 15.7865 21.8196 15.3089 21.6906 14.7926H23.317V22.6148C23.317 22.8214 23.246 22.9892 23.104 23.1182C22.962 23.2473 22.7877 23.3119 22.5812 23.3119H9.84101C9.63448 23.3119 9.46668 23.2473 9.3376 23.1182C9.20852 22.9892 9.14398 22.8214 9.14398 22.6148V14.7926H10.7317C10.6026 15.3089 10.538 15.7865 10.538 16.2254C10.538 16.9998 10.6865 17.7356 10.9834 18.4326C11.2803 19.1297 11.6869 19.7299 12.2032 20.2333C12.7195 20.7367 13.3262 21.1369 14.0232 21.4337C14.7202 21.7306 15.456 21.8791 16.2305 21.8791C17.005 21.8791 17.7407 21.7306 18.4377 21.4337C19.1348 21.1369 19.735 20.7367 20.2384 20.2333C20.7418 19.7299 21.142 19.1297 21.4389 18.4326C21.7357 17.7356 21.8842 16.9998 21.8842 16.2254ZM16.2305 19.7492C15.74 19.7492 15.2753 19.6589 14.8364 19.4782C14.3975 19.2975 14.0168 19.0458 13.6941 18.7231C13.3714 18.4004 13.1196 18.026 12.9389 17.6001C12.7582 17.1741 12.6679 16.7159 12.6679 16.2254C12.6679 15.7349 12.7582 15.2702 12.9389 14.8313C13.1196 14.3924 13.3714 14.0116 13.6941 13.6889C14.0168 13.3662 14.3975 13.1145 14.8364 12.9338C15.2753 12.7531 15.74 12.6628 16.2305 12.6628C16.721 12.6628 17.1792 12.7531 17.6052 12.9338C18.0311 13.1145 18.4055 13.3662 18.7282 13.6889C19.0509 14.0116 19.3026 14.3924 19.4833 14.8313C19.664 15.2702 19.7544 15.7349 19.7544 16.2254C19.7544 16.7159 19.664 17.1741 19.4833 17.6001C19.3026 18.026 19.0509 18.4004 18.7282 18.7231C18.4055 19.0458 18.0311 19.2975 17.6052 19.4782C17.1792 19.6589 16.721 19.7492 16.2305 19.7492ZM22.5812 9.13887C22.7877 9.13887 22.962 9.20341 23.104 9.33249C23.246 9.46157 23.317 9.62937 23.317 9.8359V11.9657C23.317 12.1722 23.246 12.3401 23.104 12.4691C22.962 12.5982 22.7877 12.6628 22.5812 12.6628H20.4514C20.2449 12.6628 20.0771 12.5982 19.948 12.4691C19.8189 12.3401 19.7544 12.1722 19.7544 11.9657V9.8359C19.7544 9.62937 19.8189 9.46157 19.948 9.33249C20.0771 9.20341 20.2449 9.13887 20.4514 9.13887H22.5812ZM24.4787 0C25.5888 0 26.6408 0.212982 27.6347 0.638946C28.6286 1.06491 29.4934 1.64577 30.2292 2.38153C30.965 3.11728 31.5458 3.97567 31.9718 4.95667C32.3978 5.93768 32.6107 6.98323 32.6107 8.09332V24.28C32.6107 25.39 32.3978 26.442 31.9718 27.436C31.5458 28.4299 30.965 29.2947 30.2292 30.0305C29.4934 30.7662 28.6286 31.3471 27.6347 31.7731C26.6408 32.199 25.5888 32.412 24.4787 32.412H8.29205C7.18196 32.412 6.13641 32.199 5.1554 31.7731C4.1744 31.3471 3.31601 30.7662 2.58026 30.0305C1.8445 29.2947 1.26364 28.4299 0.837677 27.436C0.411713 26.442 0.19873 25.39 0.19873 24.28V8.09332C0.19873 6.98323 0.411713 5.93768 0.837677 4.95667C1.26364 3.97567 1.8445 3.11728 2.58026 2.38153C3.31601 1.64577 4.1744 1.06491 5.1554 0.638946C6.13641 0.212982 7.18196 0 8.29205 0H24.4787ZM25.4468 9.13887C25.4468 8.5451 25.2403 8.04169 24.8272 7.62863C24.4141 7.21558 23.9107 7.00905 23.317 7.00905H9.14398C8.55021 7.00905 8.0468 7.21558 7.63374 7.62863C7.22069 8.04169 7.01416 8.5451 7.01416 9.13887V23.3119C7.01416 23.9056 7.22069 24.409 7.63374 24.8221C8.0468 25.2352 8.55021 25.4417 9.14398 25.4417H23.317C23.9107 25.4417 24.4141 25.2352 24.8272 24.8221C25.2403 24.409 25.4468 23.9056 25.4468 23.3119V9.13887Z" fill="black"/>
</svg>
