<svg width="33" height="33" viewBox="0 0 33 33" fill="none" xmlns="http://www.w3.org/2000/svg">
<path d="M24.3187 0C25.4288 0 26.4743 0.212982 27.4553 0.638946C28.4363 1.06491 29.2947 1.64577 30.0305 2.38153C30.7662 3.11728 31.3471 3.97567 31.7731 4.95667C32.199 5.93768 32.412 6.98323 32.412 8.09332V24.28C32.412 25.39 32.199 26.442 31.7731 27.436C31.3471 28.4299 30.7662 29.2947 30.0305 30.0305C29.2947 30.7662 28.4363 31.3471 27.4553 31.7731C26.4743 32.199 25.4288 32.412 24.3187 32.412H8.09332C6.98323 32.412 5.93768 32.199 4.95667 31.7731C3.97567 31.3471 3.11728 30.7662 2.38153 30.0305C1.64577 29.2947 1.06491 28.4299 0.638946 27.436C0.212982 26.442 0 25.39 0 24.28V8.09332C0 6.98323 0.212982 5.93768 0.638946 4.95667C1.06491 3.97567 1.64577 3.11728 2.38153 2.38153C3.11728 1.64577 3.97567 1.06491 4.95667 0.638946C5.93768 0.212982 6.98323 0 8.09332 0H24.3187ZM22.2663 7.0865H18.8586C18.1874 7.0865 17.5678 7.20267 16.9998 7.43501C16.4319 7.66736 15.9414 7.97069 15.5283 8.34503C15.1153 8.71936 14.7861 9.15178 14.5409 9.64228C14.2956 10.1328 14.173 10.6233 14.173 11.1138V13.1662H11.1525V17.1935H14.173V25.3255H18.239V17.1935H21.2595V13.1662H18.239V12.1593C18.239 11.8237 18.3616 11.5656 18.6069 11.3849C18.8521 11.2041 19.0651 11.1138 19.2458 11.1138H22.2663V7.0865Z" fill="black"/>
</svg>
