<svg width="33" height="33" viewBox="0 0 33 33" fill="none" xmlns="http://www.w3.org/2000/svg">
<path d="M24.7157 0C25.8257 0 26.8713 0.212982 27.8523 0.638946C28.8333 1.06491 29.6917 1.64577 30.4274 2.38153C31.1632 3.11728 31.7441 3.97567 32.17 4.95667C32.596 5.93768 32.809 6.98323 32.809 8.09332V24.28C32.809 25.39 32.596 26.442 32.17 27.436C31.7441 28.4299 31.1632 29.2947 30.4274 30.0305C29.6917 30.7662 28.8333 31.3471 27.8523 31.7731C26.8713 32.199 25.8257 32.412 24.7157 32.412H8.49029C7.3802 32.412 6.33466 32.199 5.35365 31.7731C4.37264 31.3471 3.51426 30.7662 2.7785 30.0305C2.04274 29.2947 1.46188 28.4299 1.03592 27.436C0.609955 26.442 0.396973 25.39 0.396973 24.28V8.09332C0.396973 6.98323 0.609955 5.93768 1.03592 4.95667C1.46188 3.97567 2.04274 3.11728 2.7785 2.38153C3.51426 1.64577 4.37264 1.06491 5.35365 0.638946C6.33466 0.212982 7.3802 0 8.49029 0H24.7157ZM24.3284 12.1981C25.0771 11.6817 25.7354 11.0105 26.3033 10.1844C25.9419 10.3393 25.574 10.4684 25.1997 10.5717C24.8254 10.6749 24.4446 10.7524 24.0573 10.804C24.9093 10.2619 25.4772 9.52611 25.7612 8.59673C24.9867 9.08724 24.1606 9.40994 23.2829 9.56483C22.5084 8.73872 21.5403 8.32566 20.3786 8.32566C19.8364 8.32566 19.3266 8.42893 18.849 8.63546C18.3714 8.84198 17.9583 9.12596 17.6098 9.48738C17.2613 9.84881 16.9838 10.2683 16.7772 10.7459C16.5707 11.2235 16.4674 11.7334 16.4674 12.2755C16.4674 12.4304 16.4739 12.5789 16.4868 12.7208C16.4997 12.8628 16.5191 13.0113 16.5449 13.1662C14.9185 13.0887 13.4082 12.6821 12.0142 11.9464C10.6201 11.2106 9.43258 10.249 8.45157 9.06142C8.09014 9.65519 7.90943 10.3135 7.90943 11.0363C7.90943 11.7076 8.07078 12.3271 8.39348 12.8951C8.71618 13.463 9.13569 13.9277 9.65201 14.2892C9.34222 14.2892 9.03888 14.244 8.742 14.1536C8.44511 14.0633 8.15468 13.9536 7.87071 13.8245V13.8632C7.87071 14.8184 8.17405 15.651 8.78072 16.3609C9.3874 17.0708 10.1425 17.5291 11.0461 17.7356C10.6847 17.813 10.3361 17.8518 10.0005 17.8518H9.63265L9.26477 17.7743C9.52293 18.5746 9.98117 19.2265 10.6395 19.7299C11.2978 20.2333 12.0658 20.4979 12.9436 20.5237C12.2723 21.04 11.5172 21.4531 10.6782 21.7629C9.83918 22.0727 8.96789 22.2276 8.06433 22.2276C7.88362 22.2276 7.71581 22.2211 7.56092 22.2082C7.40602 22.1953 7.25112 22.176 7.09623 22.1501C7.97397 22.7181 8.92271 23.157 9.94244 23.4668C10.9622 23.7765 12.0271 23.9314 13.1372 23.9314C14.9443 23.9314 16.5449 23.5894 17.939 22.9053C19.333 22.2211 20.5012 21.3434 21.4435 20.272C22.3858 19.2007 23.1022 18.0002 23.5927 16.6707C24.0832 15.3412 24.3284 14.0181 24.3284 12.7015V12.1981Z" fill="black"/>
</svg>
